<svg width="120" height="120" viewBox="0 0 120 120" fill="none" xmlns="http://www.w3.org/2000/svg">
<path d="M59.9998 119.287C92.7415 119.287 119.284 92.7444 119.284 60.0028C119.284 27.2611 92.7415 0.71875 59.9998 0.71875C27.2582 0.71875 0.71582 27.2611 0.71582 60.0028C0.71582 92.7444 27.2582 119.287 59.9998 119.287Z" fill="#63C7F2"/>
<path d="M72.8611 98.4705C69.3411 98.0865 65.8941 97.1905 62.6321 95.8085C55.4341 92.7305 48.8121 88.4465 43.0551 83.1415C36.3641 77.2735 30.7071 70.3215 26.3231 62.5765C23.7581 58.1495 21.9531 53.3255 20.9811 48.3025C20.6421 46.8965 20.9241 45.4125 21.7551 44.2285C24.7891 39.7385 28.3111 35.5965 32.2551 31.8795C32.7121 31.4825 33.1941 31.1135 33.6971 30.7765C34.3411 30.2625 35.2691 30.3125 35.8551 30.8925C36.3321 31.2685 36.7581 31.7045 37.1231 32.1895C40.3091 36.5425 43.1061 41.1665 45.4831 46.0095C46.6831 48.5255 46.5481 49.0195 44.4481 50.8475C42.9781 52.1635 41.5451 53.4795 40.0261 54.7775C39.7011 55.0275 39.5891 55.4665 39.7551 55.8415C41.4181 61.4715 44.4971 66.5835 48.6971 70.6865C52.4531 74.4665 57.0291 77.3305 62.0711 79.0565C64.0061 79.7155 64.0061 79.7155 65.3321 78.2445C66.3771 77.1125 67.3451 75.9125 68.3621 74.7505C68.6421 74.4315 68.9521 74.1315 69.2521 73.7835C69.9221 72.9275 71.1131 72.6825 72.0681 73.2025C74.3711 74.3545 76.7031 75.4575 78.9191 76.7545C81.4741 78.2445 83.9231 79.8995 86.4001 81.5245C87.0311 81.9445 87.6121 82.4345 88.1321 82.9865C88.5491 83.2845 88.8121 83.7515 88.8491 84.2615C88.8861 84.7725 88.6941 85.2735 88.3261 85.6285C87.2011 87.0225 85.9891 88.3445 84.6961 89.5865C81.5361 92.6525 78.0701 95.3865 74.3521 97.7445C73.8741 98.0245 73.3761 98.2675 72.8621 98.4705H72.8611Z" fill="#1B2A49"/>
<path d="M72.8607 98.9585H72.8127C69.2437 98.5655 65.7527 97.6525 62.4477 96.2485C55.2007 93.1465 48.5347 88.8325 42.7347 83.4935C36.0147 77.5815 30.3237 70.5935 25.8967 62.8135C23.3037 58.3435 21.4817 53.4685 20.5067 48.3935C20.1407 46.8595 20.4507 45.2425 21.3577 43.9515C24.4077 39.4315 27.9567 35.2655 31.9347 31.5355C32.3787 31.1435 32.8467 30.7815 33.3387 30.4515L33.4257 30.3835C34.2517 29.7515 35.4137 29.8085 36.1737 30.5195C36.6797 30.9355 37.1317 31.4135 37.5187 31.9415C40.7047 36.3195 43.5017 40.9655 45.8807 45.8295C47.1677 48.5295 47.0227 49.2455 44.7287 51.2965L40.3057 55.1675C40.1417 55.3125 40.0837 55.4005 40.1807 55.7295C43.4527 66.4295 51.6247 74.9315 62.1867 78.6255C63.7937 79.1875 63.7937 79.1875 64.9347 77.9485C65.6027 77.2225 66.2417 76.4685 66.8707 75.7225L67.9447 74.4545C68.1387 74.2325 68.3517 74.0295 68.5547 73.8165L68.8547 73.5065C69.6787 72.5045 71.0947 72.2205 72.2417 72.8295L73.6937 73.5545C75.4937 74.4445 77.3517 75.3645 79.1127 76.4005C81.2517 77.6385 83.3417 79.0225 85.3737 80.3585L86.6127 81.1805C87.2767 81.6215 87.8867 82.1385 88.4327 82.7195C88.9287 83.1015 89.2387 83.6795 89.2807 84.3045C89.3237 84.9305 89.0957 85.5445 88.6547 85.9905C87.5167 87.4065 86.2877 88.7485 84.9767 90.0065C81.7947 93.0965 78.3017 95.8495 74.5547 98.2225C74.1697 98.4435 73.7647 98.6285 73.3447 98.7745L73.0447 98.8905C72.9867 98.9215 72.9247 98.9445 72.8607 98.9585V98.9585ZM34.7127 30.9165C34.4457 30.9235 34.1887 31.0155 33.9767 31.1775L33.8897 31.2355C33.4327 31.5315 32.9937 31.8555 32.5737 32.2035C28.6537 35.9105 25.1577 40.0425 22.1517 44.5235C21.3957 45.6035 21.1417 46.9575 21.4547 48.2385C22.4137 53.2085 24.1997 57.9805 26.7387 62.3585C31.1087 70.0455 36.7317 76.9495 43.3737 82.7875C49.0907 88.0575 55.6657 92.3125 62.8157 95.3675C65.9977 96.7205 69.3577 97.6075 72.7937 98.0005L73.0257 97.9125C73.3837 97.7895 73.7307 97.6335 74.0607 97.4485C77.7507 95.1055 81.1907 92.3915 84.3287 89.3485C85.6047 88.1195 86.8007 86.8105 87.9087 85.4285C88.5187 84.6835 88.4807 84.2005 87.7347 83.4355C87.2457 82.9055 86.6937 82.4375 86.0897 82.0415L84.8517 81.2195C82.8287 79.8835 80.7477 78.5195 78.6387 77.2805C76.9057 76.3125 75.0587 75.3455 73.2767 74.4745L71.8167 73.7485C71.0507 73.3245 70.0907 73.5265 69.5607 74.2225L69.2507 74.5425C69.0577 74.7355 68.8647 74.9385 68.6907 75.1425C68.3227 75.5585 67.9737 75.9745 67.6157 76.4005C66.9677 77.1545 66.3187 77.9105 65.6807 78.6455C64.2097 80.2415 63.9577 80.3005 61.9057 79.6125C56.8027 77.8475 52.1697 74.9415 48.3577 71.1165C44.1077 66.9515 40.9907 61.7725 39.2997 56.0675C39.0597 55.5105 39.2127 54.8615 39.6767 54.4715L44.0997 50.5415C46.0347 48.7905 46.1127 48.5095 45.0677 46.2165C42.7057 41.4045 39.9307 36.8065 36.7737 32.4745C36.4327 32.0235 36.0357 31.6165 35.5937 31.2645C35.3547 31.0395 35.0397 30.9145 34.7127 30.9165V30.9165Z" fill="#3B3C40"/>
<path d="M79.0742 42.5849H81.4642C82.1192 42.5719 82.7502 42.8249 83.2142 43.2879C83.6772 43.7489 83.9342 44.3799 83.9232 45.0339V64.3889C83.9532 65.0589 83.7002 65.7089 83.2242 66.1819C82.7482 66.6539 82.0952 66.9019 81.4262 66.8659H57.2902C56.6102 66.8919 55.9502 66.6289 55.4722 66.1429C54.9952 65.6569 54.7452 64.9919 54.7842 64.3109V45.1009C54.7532 44.4219 55.0112 43.7609 55.4942 43.2809C55.9772 42.8019 56.6402 42.5489 57.3192 42.5859H59.6422V40.1759C59.5782 36.8879 61.2422 33.8069 64.0262 32.0559C66.9462 29.9999 70.7922 29.8159 73.8962 31.5819C77.0512 33.1799 79.0462 36.4079 79.0652 39.9439C79.1032 40.7859 79.0752 41.6179 79.0752 42.5859L79.0742 42.5849ZM74.2352 42.5849C74.2842 41.6479 74.2842 40.7079 74.2352 39.7699C74.0922 38.0099 73.0012 36.4679 71.3892 35.7469C69.7782 35.0269 67.9022 35.2399 66.4942 36.3049C64.4812 37.7469 64.2682 39.6819 64.6162 42.5849H74.2362H74.2352Z" fill="#1B2A49"/>
<path d="M74.2055 54.7599C74.2055 52.0959 72.0525 49.9339 69.3895 49.9219C66.7265 49.9089 64.5535 52.0519 64.5295 54.7149C64.5035 57.3789 66.6365 59.5609 69.2995 59.5989C70.5945 59.6169 71.8425 59.1149 72.7645 58.2049C73.6865 57.2959 74.2065 56.0549 74.2055 54.7599Z" fill="white"/>
</svg>
