<svg width="120" height="120" viewBox="0 0 120 120" fill="none" xmlns="http://www.w3.org/2000/svg">
<path d="M59.9994 111.823C87.5993 111.823 109.973 89.4489 109.973 61.849C109.973 34.2491 87.5993 11.875 59.9994 11.875C32.3995 11.875 10.0254 34.2491 10.0254 61.849C10.0254 89.4489 32.3995 111.823 59.9994 111.823Z" fill="#EDEDED"/>
<path d="M59.9998 119.287C92.7415 119.287 119.284 92.7444 119.284 60.0028C119.284 27.2611 92.7415 0.71875 59.9998 0.71875C27.2582 0.71875 0.71582 27.2611 0.71582 60.0028C0.71582 92.7444 27.2582 119.287 59.9998 119.287Z" fill="#63C7F2"/>
<path d="M105.406 74.6028V82.7418C98.5216 97.6978 84.7126 108.304 68.4866 111.097C65.6836 111.584 62.8446 111.827 59.9996 111.823C59.0316 111.823 57.9576 111.823 56.9606 111.726C54.8396 111.603 52.7286 111.341 50.6406 110.942V74.6218C51.7346 64.8288 54.5706 60.8708 59.5646 58.9738C60.1946 58.7318 60.8416 58.5308 61.4996 58.3738C64.5046 57.5158 67.4446 56.4418 70.2966 55.1608L71.6606 54.5608C74.4096 53.2838 76.4506 52.2578 76.4506 52.2578H79.6936C79.6936 52.2578 81.6286 53.2258 84.2516 54.4158L85.2966 54.8898C88.3266 56.2668 91.4496 57.4248 94.6446 58.3548C100.819 59.9708 104.225 63.6288 105.445 74.5838L105.406 74.6038V74.6028Z" fill="#4F9FC1"/>
<path d="M60.0002 112.311C58.9742 112.311 57.9392 112.311 56.9232 112.215C54.7852 112.087 52.6582 111.822 50.5552 111.421C50.3252 111.379 50.1592 111.18 50.1582 110.947V74.6272C51.2032 65.2702 53.8742 60.6152 59.3902 58.5242C60.0242 58.2842 60.6702 58.0772 61.3262 57.9052C64.3212 57.0452 67.2522 55.9712 70.0942 54.6922L71.4482 54.0922C74.1582 52.8722 76.1522 51.8572 76.1712 51.8472C76.2442 51.8322 76.3212 51.8322 76.3942 51.8472H79.6352C79.7092 51.8322 79.7852 51.8322 79.8582 51.8472C79.8582 51.8472 81.7942 52.8152 84.3882 54.0052L85.2192 54.3732L85.4422 54.4702C88.4442 55.8392 91.5432 56.9872 94.7122 57.9052C101.681 59.7442 104.71 64.2342 105.862 74.4732C105.872 74.5172 105.872 74.5632 105.862 74.6082V82.7472C105.877 82.8142 105.877 82.8832 105.862 82.9502C103.528 88.0152 100.372 92.6582 96.5222 96.6922C86.9892 106.664 73.7952 112.306 60.0002 112.312V112.311ZM51.1262 110.541C53.0642 110.898 55.0232 111.134 56.9902 111.247C77.3342 112.491 96.3602 101.137 104.923 82.6402V74.6662C103.665 63.4022 100.142 60.3342 94.4812 58.8442C91.2592 57.9102 88.1092 56.7462 85.0552 55.3602L84.8322 55.2632L83.9902 54.8862C81.7162 53.8502 79.9652 52.9502 79.5292 52.7662H76.5192C76.0652 52.9892 74.2352 53.8992 71.8552 54.9732L70.4902 55.5832C67.6002 56.8782 64.6222 57.9682 61.5772 58.8432C60.9532 59.0012 60.3382 59.1982 59.7392 59.4342C55.4032 61.0702 52.2872 64.2732 51.1262 74.6762V110.54V110.541Z" fill="#3B3C40"/>
<path d="M77.7972 62.932C81.9929 62.932 85.3942 59.9251 85.3942 56.216C85.3942 52.5069 81.9929 49.5 77.7972 49.5C73.6015 49.5 70.2002 52.5069 70.2002 56.216C70.2002 59.9251 73.6015 62.932 77.7972 62.932Z" fill="#FCA08C"/>
<path d="M77.7968 63.4156C73.3348 63.4156 69.7168 60.1836 69.7168 56.2156C69.7168 52.2476 73.3348 49.0156 77.7968 49.0156C82.2578 49.0156 85.8768 52.2476 85.8768 56.2156C85.8768 60.1836 82.2578 63.4156 77.7968 63.4156ZM77.7968 49.9836C73.9258 49.9836 70.6838 52.7806 70.6838 56.2156C70.6838 59.6516 73.8768 62.4476 77.7968 62.4476C81.7168 62.4476 84.9098 59.6516 84.9098 56.2156C84.9098 52.7806 81.7158 49.9836 77.7968 49.9836Z" fill="#3B3C40"/>
<path d="M68.4867 77.7388V111.097C65.6837 111.584 62.8447 111.827 59.9997 111.823C59.0317 111.823 57.9577 111.823 56.9607 111.726C54.8397 111.603 52.7287 111.341 50.6407 110.942C34.0187 107.772 20.1267 96.4118 13.7227 80.7478V74.6228C14.9417 63.6578 18.3867 59.9998 24.5327 58.3738C27.5527 57.5138 30.5087 56.4408 33.3767 55.1608L33.8027 54.9768C37.0257 53.5258 39.4737 52.2578 39.4737 52.2578H42.7257C42.7257 52.2578 45.0767 53.4578 48.2027 54.8418H48.3287C51.3567 56.2218 54.4817 57.3798 57.6767 58.3058C58.3347 58.4658 58.9807 58.6658 59.6127 58.9058C64.3447 60.6958 67.1517 64.3548 68.3227 73.1028C68.3607 73.6348 68.4867 77.7388 68.4867 77.7388V77.7388Z" fill="#59B3D9"/>
<path d="M59.9994 112.308C58.9734 112.308 57.9384 112.308 56.9224 112.212C45.2654 111.512 34.2144 106.781 25.6644 98.8278C20.2914 93.8278 16.0654 87.7228 13.2764 80.9338C13.2634 80.8738 13.2634 80.8108 13.2764 80.7498V74.6248C14.3894 64.2598 17.4194 59.7408 24.4064 57.9018C27.4044 57.0398 30.3363 55.9668 33.1833 54.6888L33.6094 54.5048C36.7834 53.1018 39.2314 51.8628 39.2604 51.8438C39.3304 51.8288 39.4034 51.8288 39.4734 51.8438H42.7254C42.7954 51.8288 42.8674 51.8288 42.9384 51.8438C42.9384 51.8438 45.3184 53.0538 48.3964 54.4178H48.4934C51.5084 55.7898 54.6204 56.9418 57.8034 57.8628C58.4514 58.0368 59.0993 58.2408 59.7383 58.4828C65.0124 60.4858 67.6344 64.7048 68.7764 73.0668C68.8444 73.5408 68.9604 77.2668 68.9704 77.6828V111.099C68.9704 111.332 68.8023 111.531 68.5733 111.573C65.7413 112.063 62.8734 112.308 59.9994 112.308ZM14.2054 80.6538C16.9484 87.2618 21.0804 93.2038 26.3224 98.0728C37.5344 108.466 52.9123 113.108 68.0023 110.653V77.7508C68.0023 76.1058 67.8674 73.5608 67.8184 73.2408C66.7254 65.2868 64.2864 61.2808 59.3894 59.4318C58.7894 59.1978 58.1753 58.9998 57.5513 58.8418C54.3323 57.9078 51.1853 56.7438 48.1343 55.3578H48.0093C45.2703 54.1378 43.1024 53.0548 42.6094 52.8128H39.5894C39.0864 53.0638 36.8314 54.1968 33.9964 55.4348L33.5704 55.6288C30.6794 56.9228 27.7004 58.0128 24.6574 58.8898C18.9874 60.3798 15.4644 63.4478 14.2054 74.7218V80.6548V80.6538ZM27.2414 38.9338C27.2414 38.9338 19.7994 24.6318 26.1864 19.9958C26.6124 16.6078 32.7384 10.4918 43.0834 12.0118C46.0574 12.4968 48.8714 13.6878 51.2894 15.4858C53.2254 16.8598 55.9733 18.6308 57.5023 18.6308C57.5023 18.6308 55.6734 20.7888 56.7574 22.2018C57.8414 23.6148 60.5224 25.8498 55.2964 37.4628" fill="#3B3C40"/>
<path d="M27.2423 39.4192C27.0623 39.4182 26.8993 39.3172 26.8163 39.1582C26.5063 38.5582 19.3743 24.6422 25.7423 19.7262C26.3353 17.6302 27.6473 15.8112 29.4483 14.5862C31.5293 13.0002 36.0783 10.5032 43.1523 11.5292C46.1953 12.0142 49.0763 13.2262 51.5523 15.0612C54.3003 16.9972 56.3903 18.1192 57.4843 18.1192C57.6703 18.1232 57.8393 18.2312 57.9193 18.3992C57.9953 18.5732 57.9693 18.7742 57.8523 18.9222C57.8523 18.9222 56.3033 20.8582 57.1163 21.8842L57.3103 22.1262C58.5203 23.6262 60.7653 26.4222 55.7133 37.6092C55.6493 37.7782 55.4973 37.8972 55.3193 37.9192C55.1403 37.9402 54.9643 37.8612 54.8623 37.7132C54.7603 37.5652 54.7483 37.3722 54.8323 37.2132C59.6713 26.5682 57.6293 24.0422 56.5553 22.6972L56.3523 22.4352C55.4623 21.2742 56.1103 19.7932 56.6323 18.9422C54.5923 18.2242 52.6853 17.1712 50.9903 15.8262C48.6373 14.0802 45.8993 12.9262 43.0063 12.4582C36.2323 11.4902 31.9943 13.8322 30.0293 15.3612C28.0653 16.8912 26.8453 18.6222 26.6713 20.0642C26.6513 20.1972 26.5783 20.3172 26.4683 20.3942C20.4973 24.7292 27.6003 38.5682 27.6683 38.7132C27.7283 38.8252 27.7413 38.9582 27.7033 39.0802C27.6653 39.2022 27.5793 39.3032 27.4653 39.3612C27.3973 39.4002 27.3203 39.4202 27.2423 39.4192V39.4192Z" fill="#3B3C40"/>
<path d="M40.8773 62.932C45.073 62.932 48.4743 59.9251 48.4743 56.216C48.4743 52.5069 45.073 49.5 40.8773 49.5C36.6816 49.5 33.2803 52.5069 33.2803 56.216C33.2803 59.9251 36.6816 62.932 40.8773 62.932Z" fill="#FCA08C"/>
<path d="M40.8771 63.4156C36.4171 63.4156 32.7871 60.1836 32.7871 56.2156C32.7871 52.2476 36.4171 49.0156 40.8771 49.0156C45.3391 49.0156 48.9581 52.2476 48.9581 56.2156C48.9581 60.1836 45.3291 63.4156 40.8781 63.4156H40.8771ZM40.8771 49.9836C36.9481 49.9836 33.7551 52.7806 33.7551 56.2156C33.7551 59.6516 36.9481 62.4476 40.8771 62.4476C44.8071 62.4476 47.9901 59.6516 47.9901 56.2156C47.9901 52.7806 44.7971 49.9836 40.8771 49.9836Z" fill="#3B3C40"/>
<path d="M55.2871 33.1441C55.2871 29.0131 51.9372 25.6641 47.8071 25.6641H34.0931C29.9651 25.6691 26.6222 29.0161 26.6222 33.1441V44.0891C26.6162 45.4891 26.9482 46.8701 27.5892 48.1151C27.6082 48.1561 27.6302 48.1951 27.6572 48.2311L27.7152 48.3281C27.7622 48.4181 27.8142 48.5051 27.8702 48.5891C27.9652 48.7611 28.0722 48.9261 28.1902 49.0831C29.7092 51.3961 34.0832 57.0761 40.3442 57.1631C40.5412 57.1781 40.7381 57.1781 40.9341 57.1631C41.1341 57.1791 41.3342 57.1791 41.5342 57.1631C47.7092 57.0761 52.0542 51.5311 53.6312 49.1701C53.8612 48.8611 54.0722 48.5381 54.2612 48.2021C54.9012 46.9581 55.2342 45.5771 55.2282 44.1761L55.2861 33.1441H55.2871Z" fill="#FCA08C"/>
<path d="M41.4966 57.6511C41.3126 57.6611 41.1286 57.6611 40.9446 57.6511C40.7446 57.6661 40.5446 57.6661 40.3446 57.6511C33.8996 57.5641 29.4186 51.8451 27.7646 49.3581C27.6576 49.2031 27.5416 49.0191 27.4346 48.8451L27.2806 48.5841L27.2226 48.4871L27.1736 48.3901C27.1686 48.3581 27.1686 48.3251 27.1736 48.2931C26.5216 47.0041 26.1896 45.5771 26.2056 44.1321V33.1481C26.1956 28.7721 29.7176 25.2071 34.0936 25.1641H47.8056C52.2026 25.1701 55.7656 28.7321 55.7706 33.1291V44.0931C55.7706 45.5551 55.4196 46.9961 54.7446 48.2931V48.3611C54.5416 48.7441 54.3116 49.1131 54.0576 49.4641C52.4416 51.8841 47.9706 57.5641 41.5836 57.6511H41.4966ZM28.1416 48.0911L28.2866 48.3411L28.5966 48.8161C30.1446 51.1581 34.4026 56.5581 40.3546 56.6841C40.5316 56.6981 40.7096 56.6981 40.8866 56.6841C40.9276 56.6741 40.9716 56.6741 41.0126 56.6841C41.1866 56.6941 41.3606 56.6941 41.5346 56.6841C47.4766 56.6061 51.6966 51.2161 53.2346 48.9421C53.4766 48.5931 53.6706 48.2841 53.8446 47.9741V47.9261C54.4716 46.7561 54.8046 45.4501 54.8126 44.1221V33.1481C54.8126 29.2771 51.6776 26.1381 47.8056 26.1321H34.0936C32.2346 26.1351 30.4536 26.8751 29.1416 28.1911C27.8296 29.5071 27.0936 31.2901 27.0966 33.1481V44.0931C27.1046 45.4211 27.4366 46.7271 28.0646 47.8971V47.9641C28.0686 48.0031 28.0686 48.0421 28.0646 48.0801L28.1416 48.0901V48.0911Z" fill="#3B3C40"/>
<path d="M30.9678 24.1406C30.9678 24.1406 31.8188 29.8606 38.6518 29.1736C43.9158 28.6506 47.7098 25.8436 50.7768 24.6636" fill="#3B3C40"/>
<path d="M37.5481 29.7119C34.1361 29.9219 31.1031 27.5559 30.4741 24.1959C30.4391 23.9319 30.6191 23.6879 30.8811 23.6439C31.1431 23.6139 31.3831 23.7909 31.4321 24.0499C31.4321 24.2629 32.3031 29.2959 38.5941 28.6759C41.7811 28.2339 44.8531 27.1829 47.6421 25.5789C48.6871 25.0469 49.6651 24.5539 50.5451 24.1959C50.7881 24.1219 51.0451 24.2479 51.1371 24.4839C51.2291 24.7199 51.1221 24.9869 50.8941 25.0959C50.0131 25.4339 49.0541 25.9279 47.9901 26.4409C45.1281 28.0889 41.9781 29.1789 38.7101 29.6539C38.2941 29.6919 37.9061 29.7119 37.5481 29.7119V29.7119Z" fill="#3B3C40"/>
<path d="M34.9453 39.8172C35.5655 39.8172 36.0683 38.877 36.0683 37.7172C36.0683 36.5574 35.5655 35.6172 34.9453 35.6172C34.3251 35.6172 33.8223 36.5574 33.8223 37.7172C33.8223 38.877 34.3251 39.8172 34.9453 39.8172Z" fill="#3B3C40"/>
<path d="M32.2256 34.0867C34.0296 32.7317 36.5316 32.8037 38.2546 34.2607Z" fill="#FCA08C"/>
<path d="M38.255 34.7474C38.155 34.7474 38.056 34.7174 37.975 34.6604C36.428 33.3394 34.176 33.2554 32.535 34.4574C32.331 34.5934 32.056 34.5534 31.898 34.3654C31.739 34.1774 31.748 33.9004 31.916 33.7214C33.896 32.2454 36.627 32.3094 38.536 33.8764C38.641 33.9484 38.712 34.0604 38.734 34.1864C38.756 34.3114 38.726 34.4404 38.652 34.5444C38.559 34.6714 38.412 34.7464 38.255 34.7474Z" fill="#3B3C40"/>
<path d="M46.1523 39.8172C46.7725 39.8172 47.2753 38.877 47.2753 37.7172C47.2753 36.5574 46.7725 35.6172 46.1523 35.6172C45.5321 35.6172 45.0293 36.5574 45.0293 37.7172C45.0293 38.877 45.5321 39.8172 46.1523 39.8172Z" fill="#3B3C40"/>
<path d="M43.4316 34.0867C45.2366 32.7317 47.7376 32.8037 49.4616 34.2607Z" fill="#FCA08C"/>
<path d="M49.4606 34.7474C49.3576 34.7474 49.2566 34.7174 49.1706 34.6604C47.6276 33.3404 45.3786 33.2564 43.7406 34.4574C43.5366 34.5934 43.2626 34.5534 43.1036 34.3654C42.9456 34.1774 42.9536 33.9004 43.1226 33.7214C45.1026 32.2454 47.8326 32.3094 49.7416 33.8764C49.9516 34.0334 49.9996 34.3294 49.8476 34.5444C49.7596 34.6704 49.6156 34.7464 49.4606 34.7474Z" fill="#3B3C40"/>
<path d="M34.5576 48.6219C34.5576 48.6219 41.0806 52.3179 46.8476 47.4219L47.8156 48.5149" fill="#FCA08C"/>
<path d="M40.0738 50.4331C38.0558 50.4311 36.0668 49.9531 34.2678 49.0391C34.1558 48.9771 34.0738 48.8711 34.0408 48.7471C34.0088 48.6231 34.0268 48.4911 34.0938 48.3811C34.1538 48.2441 34.2738 48.1411 34.4208 48.1061C34.5668 48.0701 34.7208 48.1041 34.8388 48.1981C35.0898 48.3431 41.1488 51.6721 46.5768 47.0561C46.7638 46.8771 47.0578 46.8771 47.2448 47.0561L48.2128 48.1391C48.3408 48.2651 48.3888 48.4521 48.3368 48.6241C48.2858 48.7961 48.1428 48.9251 47.9668 48.9601C47.7898 48.9941 47.6088 48.9281 47.4968 48.7881L46.8288 48.0431C44.9208 49.5961 42.5338 50.4411 40.0738 50.4331Z" fill="#3B3C40"/>
<path d="M41.6127 37.1328C41.6127 37.1328 41.7187 41.3718 42.8327 42.8908C43.9447 44.4108 40.4997 45.0108 39.3867 44.6138" fill="#FCA08C"/>
<path d="M40.2968 45.2125C39.9328 45.2215 39.5708 45.1725 39.2228 45.0675C38.9728 44.9675 38.8458 44.6915 38.9328 44.4375C39.0268 44.1905 39.3028 44.0655 39.5518 44.1575C40.5808 44.3815 41.6558 44.1605 42.5118 43.5475C42.5118 43.4895 42.6288 43.3935 42.4348 43.1415C41.2448 41.5155 41.1388 37.2765 41.1288 37.1025C41.1258 36.9745 41.1748 36.8505 41.2638 36.7575C41.3528 36.6655 41.4738 36.6115 41.6038 36.6095C41.7288 36.6065 41.8508 36.6545 41.9408 36.7415C42.0318 36.8285 42.0848 36.9475 42.0868 37.0735C42.0868 38.2155 42.3668 41.4185 43.2098 42.5605C43.5948 43.0035 43.6228 43.6545 43.2768 44.1285C42.4698 44.8755 41.3958 45.2665 40.2968 45.2125V45.2125ZM56.9608 112.258C56.6938 112.258 56.4768 112.041 56.4768 111.774V72.2705C56.4768 72.0035 56.6938 71.7865 56.9608 71.7865C57.2288 71.7865 57.4448 72.0035 57.4448 72.2705V111.726C57.4548 111.862 57.4098 111.996 57.3178 112.096C57.2268 112.197 57.0978 112.256 56.9608 112.258V112.258ZM96.1548 96.8415C95.8898 96.8365 95.6758 96.6225 95.6708 96.3575V72.2705C95.6708 72.0035 95.8878 71.7865 96.1548 71.7865C96.4218 71.7865 96.6388 72.0035 96.6388 72.2705V96.3575C96.6388 96.6245 96.4218 96.8415 96.1548 96.8415ZM77.7098 73.7605C77.4418 73.7605 77.2258 73.5445 77.2258 73.2765V63.2515C77.2308 62.9865 77.4448 62.7715 77.7098 62.7675C77.9768 62.7675 78.1938 62.9835 78.1938 63.2515V73.2765C78.1938 73.5445 77.9768 73.7605 77.7098 73.7605ZM25.9938 98.9605C25.7258 98.9605 25.5098 98.7445 25.5098 98.4765V72.2705C25.5098 72.0035 25.7258 71.7865 25.9938 71.7865C26.2608 71.7865 26.4768 72.0035 26.4768 72.2705V98.4765C26.4718 98.7415 26.2588 98.9565 25.9938 98.9605Z" fill="#3B3C40"/>
<path d="M59.9993 112.308C58.9733 112.308 57.9383 112.308 56.9313 112.212C45.2713 111.515 34.2173 106.782 25.6643 98.8282C20.2913 93.8282 16.0653 87.7232 13.2763 80.9342C10.7913 74.8792 9.51933 68.3952 9.53133 61.8502C9.53133 61.5832 9.74833 61.3672 10.0153 61.3672C10.2823 61.3672 10.4993 61.5832 10.4993 61.8502C10.4903 68.2692 11.7363 74.6262 14.1673 80.5672C16.9043 87.2272 21.0513 93.2152 26.3223 98.1212C40.7433 111.526 61.7413 115.105 79.7893 107.234C97.8373 99.3632 109.501 81.5402 109.489 61.8502C109.489 61.5832 109.706 61.3672 109.973 61.3672C110.24 61.3672 110.457 61.5832 110.457 61.8502C110.447 89.7132 87.8623 112.298 59.9993 112.308V112.308Z" fill="#3B3C40"/>
<path d="M92.6132 34.8981C95.2832 21.9401 90.5422 27.2531 86.8742 26.7881L75.5612 19.6181C71.8942 19.1621 68.1772 16.2591 67.6742 20.2851L65.7402 42.3691C65.5702 43.7231 65.7052 45.0991 66.1362 46.3951C66.1342 46.4361 66.1342 46.4781 66.1362 46.5201C66.1422 46.5521 66.1422 46.5851 66.1362 46.6171L66.2532 46.8881C66.3172 47.0631 66.3912 47.2341 66.4752 47.4011C67.5402 49.8211 70.7432 55.8401 76.2882 56.6241H76.8202C76.9962 56.6661 77.1732 56.6981 77.3532 56.7201C82.8592 57.3301 87.3882 52.4141 89.0722 50.2951C89.3232 50.0091 89.5522 49.7051 89.7592 49.3851C90.4942 48.2311 90.9632 46.9291 91.1332 45.5721L92.6132 34.8981V34.8981Z" fill="#FCA08C"/>
<path d="M78.387 57.2936C78.064 57.2926 77.741 57.2736 77.419 57.2356C77.24 57.2136 77.063 57.1816 76.887 57.1386C76.707 57.1486 76.526 57.1486 76.345 57.1386C70.587 56.3356 67.297 50.2286 66.155 47.6456C66.077 47.4806 66 47.2976 65.923 47.1036L65.816 46.8326V46.6006C65.812 46.5646 65.812 46.5296 65.816 46.4936C65.386 45.1546 65.256 43.7366 65.439 42.3426L67.374 20.2776C67.388 19.4106 67.798 18.5976 68.487 18.0716C69.552 17.3936 71.032 17.8586 72.745 18.4096C73.737 18.7546 74.757 19.0096 75.794 19.1746C75.866 19.1876 75.934 19.2136 75.997 19.2516L87.213 26.3646C88.075 26.3766 88.934 26.2526 89.758 25.9976C91.094 25.6576 92.352 25.3486 93.223 26.1716C94.306 27.2166 94.326 29.8686 93.223 35.0266L91.887 45.6716C91.719 47.0796 91.237 48.4326 90.474 49.6296C90.479 49.6516 90.479 49.6746 90.474 49.6976C90.25 50.0376 90.001 50.3616 89.729 50.6646C87.929 52.6976 83.681 57.2946 78.387 57.2946V57.2936ZM76.935 56.1326H77.061C77.211 56.1746 77.363 56.2076 77.516 56.2296C82.771 56.8096 87.194 52.0496 88.81 49.9776C89.049 49.6996 89.269 49.4056 89.468 49.0976C90.173 48.0076 90.626 46.7746 90.794 45.4876L92.129 34.8426C93.097 30.3036 93.097 27.6126 92.371 26.8776C91.887 26.4136 90.929 26.6556 89.816 26.9356C88.844 27.2416 87.824 27.3686 86.806 27.3136C86.734 27.3036 86.664 27.2766 86.603 27.2356L75.377 20.1236C74.318 19.9466 73.277 19.6806 72.261 19.3306C70.848 18.8756 69.503 18.4506 68.826 18.8856C68.388 19.2596 68.14 19.8096 68.148 20.3856L66.213 42.4496C66.043 43.7516 66.168 45.0746 66.581 46.3206V46.3886C66.591 46.4266 66.591 46.4666 66.581 46.5046H66.629L66.735 46.7656C66.803 46.9306 66.871 47.0956 66.948 47.2596C68.032 49.7076 71.119 55.4566 76.394 56.2016C76.548 56.2106 76.704 56.2106 76.858 56.2016L76.935 56.1336V56.1326Z" fill="#3B3C40"/>
<path d="M74.4466 37.383C74.5908 36.2321 74.2088 35.2367 73.5934 35.1597C72.978 35.0826 72.3622 35.953 72.218 37.1038C72.0739 38.2546 72.4559 39.25 73.0713 39.3271C73.6867 39.4042 74.3025 38.5338 74.4466 37.383Z" fill="#3B3C40"/>
<path d="M71.0801 33.2911C73.0481 32.1871 75.5161 32.5891 77.0321 34.2591Z" fill="#FCA08C"/>
<path d="M77.0314 34.7076C76.9094 34.7056 76.7914 34.6576 76.7024 34.5726C75.3344 33.0726 73.1144 32.7126 71.3414 33.7016C71.1164 33.8456 70.8184 33.7806 70.6734 33.5566C70.6014 33.4496 70.5764 33.3166 70.6034 33.1916C70.6314 33.0656 70.7094 32.9556 70.8184 32.8886C72.9654 31.6816 75.6554 32.0796 77.3604 33.8566C77.4524 33.9466 77.5034 34.0706 77.5034 34.1996C77.5034 34.3296 77.4524 34.4526 77.3604 34.5436C77.2754 34.6376 77.1584 34.6966 77.0314 34.7076V34.7076Z" fill="#3B3C40"/>
<path d="M85.5541 38.7736C85.6982 37.6228 85.3162 36.6274 84.7008 36.5503C84.0854 36.4732 83.4696 37.3436 83.3255 38.4944C83.1813 39.6452 83.5633 40.6406 84.1787 40.7177C84.7941 40.7948 85.4099 39.9244 85.5541 38.7736Z" fill="#3B3C40"/>
<path d="M82.2002 34.6898C84.1672 33.5858 86.6362 33.9868 88.1522 35.6578Z" fill="#FCA08C"/>
<path d="M88.1514 36.1021C88.0284 36.0991 87.9114 36.0511 87.8214 35.9661C86.4534 34.4671 84.2334 34.1061 82.4614 35.0961C82.2364 35.2421 81.9354 35.1791 81.7884 34.9551C81.6414 34.7311 81.7044 34.4291 81.9284 34.2821C84.0774 33.0711 86.7734 33.4691 88.4804 35.2501C88.6654 35.4421 88.6654 35.7461 88.4804 35.9371C88.3944 36.0301 88.2774 36.0891 88.1504 36.1021H88.1514Z" fill="#3B3C40"/>
<path d="M71.6133 48.0156C71.6133 48.0156 77.6333 52.4956 83.9613 48.3536L84.7943 49.5536" fill="#FCA08C"/>
<path d="M78.232 50.5761C75.757 50.5311 73.347 49.7721 71.294 48.3891C71.191 48.3121 71.123 48.1971 71.104 48.0701C71.087 47.9431 71.12 47.8141 71.197 47.7121C71.357 47.5001 71.657 47.4521 71.874 47.6051C72.106 47.7791 77.681 51.8351 83.661 47.9351C83.881 47.7921 84.175 47.8471 84.329 48.0601L85.161 49.2601C85.312 49.4801 85.261 49.7801 85.045 49.9371C84.939 50.0121 84.807 50.0401 84.68 50.0171C84.553 49.9931 84.44 49.9191 84.368 49.8121L83.797 48.9891C82.124 50.0221 80.198 50.5711 78.232 50.5761V50.5761Z" fill="#3B3C40"/>
<path d="M80.013 37.4844C80.013 37.4844 79.587 41.7144 80.497 43.3494C81.407 44.9854 77.932 45.1694 76.877 44.6274" fill="#FCA08C"/>
<path d="M78.3865 45.3926C77.7825 45.4086 77.1825 45.2966 76.6255 45.0636C76.3925 44.9396 76.2985 44.6536 76.4125 44.4156C76.4705 44.2986 76.5725 44.2106 76.6965 44.1706C76.8205 44.1306 76.9555 44.1416 77.0705 44.2026C78.0525 44.5666 79.1435 44.4966 80.0705 44.0086C80.0705 43.9506 80.2055 43.8736 80.0705 43.5926C79.1025 41.8316 79.4995 37.6126 79.5185 37.4376C79.5535 37.1756 79.7865 36.9846 80.0515 37.0026C80.1795 37.0146 80.2985 37.0776 80.3795 37.1776C80.4615 37.2776 80.4995 37.4066 80.4865 37.5346C80.3705 38.6666 80.2255 41.8796 80.9125 43.1186C81.2425 43.6066 81.1905 44.2576 80.7865 44.6866C80.1005 45.2086 79.2465 45.4606 78.3865 45.3926V45.3926ZM98.7095 23.9086C98.4435 22.1586 97.0415 20.7996 95.2835 20.5886C93.5945 20.2586 91.9875 19.6016 90.5515 18.6536C88.2685 17.2236 86.1375 15.5636 84.1935 13.6996C83.6345 13.0746 83.0435 12.4796 82.4225 11.9186C81.6545 11.3226 80.7715 10.8946 79.8285 10.6606C78.2085 10.2046 76.4735 10.4546 75.0485 11.3476C73.7825 12.1196 72.7025 13.1606 71.8835 14.3956C71.4385 15.0536 71.0125 15.7316 70.5675 16.4286C70.3735 16.4286 70.1805 16.3116 69.9875 16.2736C69.4015 16.1316 68.8065 16.0386 68.2055 15.9936C67.2735 15.9476 66.3555 16.2326 65.6125 16.7956C64.6975 17.5006 63.8835 18.3276 63.1925 19.2536C61.3685 21.6346 60.9345 24.8016 62.0515 27.5866C62.6615 29.2246 63.5375 30.7516 64.6445 32.1056C65.1285 32.7056 65.8445 35.5026 66.3865 36.0826C66.5705 35.7726 68.0515 23.1056 68.0515 23.1056L72.2415 23.6286C74.9415 24.2666 78.3865 23.8986 79.4705 27.0346C81.3185 32.3766 90.2905 32.8406 93.1645 30.6346L92.3895 36.8476C92.3895 36.9636 92.4575 37.0796 92.4765 37.2056C92.9705 36.6826 93.4445 36.2376 93.4445 36.1316C94.2675 35.0186 95.1475 33.9536 95.8745 32.7826C97.0505 31.0246 97.9245 29.0826 98.4575 27.0346C98.7575 26.0216 98.8425 24.9566 98.7095 23.9086V23.9086Z" fill="#3B3C40"/>
<path d="M92.4479 37.6904H92.3229C92.1489 37.6444 92.0149 37.5074 91.9739 37.3324L91.8869 37.0024C91.8769 36.9394 91.8769 36.8734 91.8869 36.8094L92.5449 31.5834C89.9509 32.5794 87.0979 32.6714 84.4449 31.8454C81.6769 31.0224 79.7419 29.3774 78.9969 27.2194C78.2519 25.0614 76.1999 24.7714 74.0419 24.4514C73.3939 24.3644 72.7349 24.2674 72.1059 24.1224L68.4579 23.6674C67.0159 35.9574 66.8519 36.2474 66.7839 36.3454C66.7079 36.4764 66.5759 36.5654 66.4259 36.5874C66.2709 36.6014 66.1179 36.5444 66.0099 36.4324C65.5469 35.7294 65.1979 34.9594 64.9739 34.1484C64.7899 33.5514 64.5459 32.9744 64.2479 32.4254C63.1049 31.0344 62.2019 29.4604 61.5779 27.7714C60.4089 24.8324 60.8679 21.4974 62.7879 18.9834C63.5049 18.0234 64.3509 17.1674 65.3029 16.4384C66.1329 15.8024 67.1619 15.4804 68.2059 15.5284C68.6659 15.5524 69.1229 15.6184 69.5709 15.7224L70.0549 15.8194L70.3349 15.8874L70.5579 15.5384C70.8579 15.0644 71.1579 14.5714 71.4679 14.1354C72.3279 12.8484 73.4579 11.7624 74.7779 10.9514C76.3159 9.98938 78.1879 9.71838 79.9349 10.2064C80.9389 10.4654 81.8799 10.9224 82.7029 11.5514C83.1309 11.9094 83.5289 12.3014 83.8929 12.7224C84.0969 12.9454 84.2999 13.1674 84.5129 13.3804C86.4379 15.2184 88.5459 16.8564 90.8029 18.2674C92.1849 19.1844 93.7329 19.8194 95.3609 20.1354C97.3179 20.3804 98.8739 21.8934 99.1739 23.8414C99.3279 24.9524 99.2489 26.0824 98.9419 27.1614C98.3959 29.2614 97.5019 31.2574 96.2999 33.0644C95.7769 33.8964 95.1769 34.6804 94.6059 35.4354C94.3549 35.7654 94.0939 36.1034 93.8519 36.4034L92.9419 37.3714L92.8159 37.5064C92.7259 37.6164 92.5919 37.6844 92.4479 37.6904V37.6904ZM93.1349 30.1514C93.2169 30.1544 93.2969 30.1774 93.3679 30.2194C93.5419 30.3144 93.6379 30.5074 93.6099 30.7034L92.9519 35.9484C92.9899 35.9124 93.0259 35.8744 93.0579 35.8324L93.8129 34.8644C94.3739 34.1294 94.9649 33.3644 95.4579 32.5714C96.6029 30.8534 97.4539 28.9564 97.9739 26.9584C98.2519 26.0164 98.3309 25.0284 98.2059 24.0544C97.9579 22.5194 96.7219 21.3344 95.1769 21.1514C93.4259 20.8134 91.7589 20.1324 90.2709 19.1484C87.9529 17.7034 85.7899 16.0234 83.8159 14.1354C83.5839 13.9124 83.3709 13.6804 83.1579 13.4384C82.8269 13.0604 82.4679 12.7084 82.0839 12.3834C81.3669 11.8304 80.5439 11.4324 79.6639 11.2134C78.1739 10.8004 76.5769 11.0284 75.2609 11.8414C74.0609 12.5814 73.0329 13.5714 72.2509 14.7454C71.9409 15.1904 71.6509 15.6554 71.3509 16.1194L70.9349 16.7674C70.8209 16.9434 70.6049 17.0254 70.4029 16.9714L70.2289 16.9224C70.1029 16.9224 69.9869 16.8544 69.8609 16.8354L69.3579 16.7294C68.9639 16.6354 68.5619 16.5764 68.1579 16.5544C67.3379 16.5144 66.5279 16.7644 65.8739 17.2614C64.9939 17.9324 64.2119 18.7244 63.5519 19.6124C61.8079 21.8594 61.3949 24.8664 62.4679 27.5004C63.0519 29.0904 63.9029 30.5704 64.9839 31.8744C65.3599 32.5024 65.6559 33.1744 65.8639 33.8774C65.9419 34.1004 66.0389 34.3514 66.1259 34.5934C66.4549 32.1454 67.0939 26.8514 67.5289 23.1254C67.5459 22.9964 67.6119 22.8794 67.7129 22.7964C67.8129 22.7164 67.9429 22.6814 68.0709 22.7004L72.2609 23.2224C72.8909 23.3674 73.5099 23.4644 74.1969 23.5524C76.4419 23.8804 79.0349 24.2484 79.9259 26.9584C80.5739 28.8164 82.2869 30.2384 84.7649 30.9744C87.7159 31.8544 91.2869 31.5744 92.8939 30.3354C92.9529 30.2504 93.0379 30.1854 93.1349 30.1514V30.1514Z" fill="#3B3C40"/>
</svg>
