<svg width="120" height="120" viewBox="0 0 120 120" fill="none" xmlns="http://www.w3.org/2000/svg">
<path d="M59.9998 119.287C92.7415 119.287 119.284 92.7444 119.284 60.0028C119.284 27.2611 92.7415 0.71875 59.9998 0.71875C27.2582 0.71875 0.71582 27.2611 0.71582 60.0028C0.71582 92.7444 27.2582 119.287 59.9998 119.287Z" fill="#63C7F2"/>
<path d="M59.6895 106.659C59.4665 106.661 59.2445 106.628 59.0315 106.562C38.0705 99.9418 23.4395 80.9268 23.4395 60.3138V30.6038C23.4355 29.9818 23.6975 29.3878 24.1595 28.9718C24.6225 28.5558 25.2395 28.3568 25.8595 28.4268C27.4655 28.6028 29.0805 28.6928 30.6975 28.6968C41.2845 28.6968 51.9295 23.6367 58.3555 18.9038C59.1225 18.3238 60.1815 18.3238 60.9485 18.9038C67.3845 23.6357 78.0195 28.6978 88.6165 28.6978C90.2335 28.6938 91.8485 28.6028 93.4555 28.4268C94.0745 28.3568 94.6935 28.5538 95.1585 28.9688C95.6215 29.3858 95.8855 29.9808 95.8845 30.6038V60.3138C95.8845 80.9268 81.2425 99.9908 60.2815 106.562C60.0895 106.622 59.8915 106.654 59.6915 106.659H59.6895ZM25.6255 29.3837C24.9515 29.3837 24.4055 29.9298 24.4055 30.6028V60.3127C24.4055 80.4997 38.7675 99.1478 59.3225 105.642C59.5625 105.714 59.8175 105.714 60.0575 105.642C80.6225 99.1478 94.9835 80.4797 94.9835 60.3117V30.6038C94.9845 30.2558 94.8365 29.9248 94.5765 29.6938C94.3125 29.4598 93.9605 29.3467 93.6095 29.3837C91.9575 29.5707 90.2965 29.6638 88.6345 29.6648C77.8055 29.6648 66.9475 24.5068 60.3965 19.6778C59.9695 19.3578 59.3815 19.3578 58.9545 19.6778C52.3935 24.5168 41.5345 29.6648 30.7155 29.6648C29.0505 29.6638 27.3865 29.5698 25.7315 29.3848H25.6255V29.3837Z" fill="#3B3C40"/>
<path d="M87.0194 35.9569C78.5704 35.6169 68.9414 32.4919 60.5794 27.4019C60.0384 27.0639 59.3514 27.0639 58.8094 27.4019C50.4474 32.4919 40.8094 35.6179 32.3704 35.9569C31.4564 35.9929 30.7344 36.7449 30.7344 37.6599V60.3149C30.7344 76.7659 42.3474 92.6279 59.0994 98.8699C59.2894 98.9379 59.4884 98.9739 59.6894 98.9759C59.8944 98.9739 60.0974 98.9379 60.2894 98.8699C76.9934 92.6279 88.6544 76.7749 88.6544 60.3149V37.6599C88.6504 36.7469 87.9304 35.9979 87.0184 35.9569H87.0194Z" fill="#1B2A49"/>
<path d="M59.69 99.4558C59.43 99.4538 59.171 99.4078 58.926 99.3198C42.039 93.0098 30.252 76.9658 30.252 60.3098V37.6568C30.246 36.4798 31.176 35.5118 32.352 35.4698C40.712 35.1308 50.265 32.0438 58.558 26.9828C59.257 26.5578 60.134 26.5578 60.832 26.9828C69.116 32.0428 78.677 35.1308 87.039 35.4698C88.215 35.5118 89.145 36.4798 89.139 37.6568V60.3108C89.139 76.9658 77.342 93.0108 60.455 99.3208C60.21 99.4088 59.951 99.4548 59.69 99.4558V99.4558ZM59.69 27.6298C59.469 27.6298 59.252 27.6908 59.061 27.8038C50.632 32.9038 40.906 36.0878 32.391 36.4358C31.736 36.4618 31.219 37.0008 31.219 37.6558V60.3108C31.219 76.5688 42.755 92.2458 59.284 98.4108C59.56 98.5068 59.86 98.5068 60.135 98.4108C76.655 92.2358 88.2 76.5688 88.2 60.3108V37.6558C88.2 37.0008 87.683 36.4618 87.029 36.4358C78.503 36.0878 68.777 32.9428 60.359 27.8038C60.156 27.6838 59.925 27.6238 59.69 27.6298Z" fill="#3B3C40"/>
<path d="M59.6519 82.4367C69.4914 82.4367 77.4679 74.4602 77.4679 64.6207C77.4679 54.7812 69.4914 46.8047 59.6519 46.8047C49.8124 46.8047 41.8359 54.7812 41.8359 64.6207C41.8359 74.4602 49.8124 82.4367 59.6519 82.4367Z" fill="white"/>
<path d="M59.6521 82.9326C52.2451 82.9366 45.5661 78.4776 42.7291 71.6366C39.8921 64.7946 41.4561 56.9176 46.6921 51.6796C51.9271 46.4406 59.8031 44.8726 66.6471 47.7056C73.4901 50.5396 77.9521 57.2156 77.9521 64.6226C77.9411 74.7266 69.7561 82.9166 59.6521 82.9326ZM59.6521 47.2906C52.6361 47.2866 46.3091 51.5106 43.6221 57.9906C40.9351 64.4726 42.4181 71.9336 47.3791 76.8946C52.3401 81.8556 59.8021 83.3386 66.2831 80.6526C72.7641 77.9656 76.9881 71.6386 76.9831 64.6226C76.9731 55.0546 69.2201 47.3016 59.6521 47.2906V47.2906Z" fill="#3B3C40"/>
<path d="M69.677 58.3349C69.358 58.0149 68.925 57.8359 68.473 57.8359C68.021 57.8359 67.587 58.0159 67.268 58.3359L56.594 69.0469L50.981 63.4439C50.315 62.7789 49.236 62.7789 48.571 63.4439C47.906 64.1099 47.906 65.1879 48.571 65.8539L55.345 72.6279C56.013 73.2879 57.087 73.2879 57.755 72.6279L69.677 60.7439C69.997 60.4239 70.177 59.9909 70.177 59.5389C70.177 59.0869 69.997 58.6539 69.677 58.3339V58.3349Z" fill="#3B3C40"/>
</svg>
