<svg width="120" height="120" viewBox="0 0 120 120" fill="none" xmlns="http://www.w3.org/2000/svg">
<path d="M59.9998 119.287C92.7415 119.287 119.284 92.7444 119.284 60.0028C119.284 27.2611 92.7415 0.71875 59.9998 0.71875C27.2582 0.71875 0.71582 27.2611 0.71582 60.0028C0.71582 92.7444 27.2582 119.287 59.9998 119.287Z" fill="#63C7F2"/>
<path d="M96.6985 76.8114C105.982 56.5434 97.0777 32.5871 76.8097 23.3034C56.5418 14.0198 32.5854 22.9243 23.3018 43.1922C14.0181 63.4602 22.9226 87.4165 43.1906 96.7002C63.4585 105.984 87.4149 97.0794 96.6985 76.8114Z" fill="#1B2A49"/>
<path d="M59.9322 100.853C37.7022 100.819 19.5822 83.0156 19.1542 60.7896C18.7262 38.5646 36.1502 20.0776 58.3622 19.1896C80.5742 18.2996 99.4182 35.3366 100.768 57.5256C102.117 79.7136 85.4752 98.9086 63.3192 100.718C62.1872 100.805 61.0552 100.853 59.9322 100.853ZM60.0292 20.1426C43.3012 20.1216 28.3392 30.5466 22.5662 46.2456C16.7922 61.9456 21.4342 79.5796 34.1902 90.4016C47.6402 101.842 67.0102 103.077 81.8032 93.4366C96.5962 83.7966 103.289 65.5766 98.2552 48.6526C93.2202 31.7286 77.6572 20.1306 60.0002 20.1426H60.0292V20.1426Z" fill="#3B3C40"/>
<path d="M60.0967 62.8377L84.4347 83.4897C72.1267 96.8797 51.4417 98.1597 37.5767 86.3877C23.7127 74.6167 21.6197 53.9977 32.8347 39.6797L46.4517 51.2927L49.8097 54.1967L56.1287 59.4507L60.0967 62.8377V62.8377Z" fill="white"/>
<path d="M59.9996 94.3892C46.9886 94.3892 35.0906 87.0462 29.2596 75.4142C23.4286 63.7832 24.6626 49.8562 32.4476 39.4312C32.5296 39.3232 32.6516 39.2532 32.7876 39.2372C32.9176 39.2232 33.0506 39.2612 33.1546 39.3442L84.7546 83.1242C84.8566 83.2122 84.9156 83.3392 84.9186 83.4732C84.9286 83.6062 84.8786 83.7372 84.7836 83.8312C78.3256 90.6082 69.3616 94.4272 59.9996 94.3892ZM32.9026 40.4182C25.5426 50.5922 24.5066 64.0342 30.2226 75.2162C35.9396 86.3972 47.4426 93.4302 59.9996 93.4212C68.9156 93.4542 77.4676 89.8882 83.7196 83.5312L59.7666 63.2082L32.9016 40.4182H32.9026Z" fill="#3B3C40"/>
<path d="M93.8706 60.0032C93.8646 67.3132 91.4876 74.4232 87.0966 80.2682L63.4446 60.2062L59.2936 56.6842L56.2636 54.1192L51.4256 50.0262L35.4766 36.4772C45.0506 26.4292 59.7846 23.2372 72.6566 28.4242C85.5316 33.6102 93.9376 46.1232 93.8716 60.0032H93.8706Z" fill="white"/>
<path d="M87.1653 80.7694C87.0503 80.7704 86.9403 80.7294 86.8553 80.6534L35.2453 36.8914C35.1413 36.8054 35.0783 36.6784 35.0713 36.5434C35.0713 36.4114 35.1183 36.2834 35.2063 36.1854C41.6663 29.4044 50.6343 25.5814 60.0003 25.6174C73.0083 25.6244 84.8993 32.9704 90.7253 44.6004C96.5513 56.2304 95.3153 70.1534 87.5323 80.5754C87.4523 80.6804 87.3343 80.7504 87.2033 80.7694H87.1653V80.7694ZM36.2603 36.4854L87.0963 79.5784C91.2273 73.8894 93.4403 67.0324 93.4163 60.0014C93.4163 41.5464 78.4543 26.5854 59.9993 26.5854C51.0753 26.5504 42.5153 30.1194 36.2603 36.4854V36.4854Z" fill="#3B3C40"/>
<path d="M46.4519 51.2906C46.3569 51.5376 46.3099 51.8006 46.3159 52.0656C46.3149 52.5956 46.5079 53.1086 46.8579 53.5066C47.3029 53.9616 47.9269 54.1956 48.5609 54.1466H49.8099L46.4519 51.2906V51.2906ZM67.3549 76.9066L54.3479 64.3946C55.6639 64.2696 56.9619 64.0006 58.2189 63.5906C58.8569 63.3856 59.4779 63.1336 60.0769 62.8356L56.1289 59.4486C55.2879 59.8366 54.3989 60.1136 53.4869 60.2716C52.3149 60.4846 51.1269 60.5916 49.9349 60.5916H49.1809C48.5129 60.5716 47.8679 60.8316 47.3999 61.3066C46.9399 61.7966 46.6899 62.4456 46.7029 63.1166C46.7029 63.5496 46.8029 63.9766 46.9929 64.3656C47.2329 64.8226 47.5629 65.2276 47.9609 65.5556L63.2999 80.5356C63.6399 80.9076 64.0659 81.1936 64.5389 81.3686C64.9379 81.5026 65.3559 81.5716 65.7769 81.5716C66.5009 81.6186 67.2069 81.3456 67.7129 80.8266C68.1779 80.3256 68.4279 79.6616 68.4099 78.9776C68.3699 78.1706 67.9939 77.4166 67.3739 76.8976L67.3539 76.9076L67.3549 76.9066ZM69.8999 50.0526H65.8059C65.4709 48.9126 64.8779 47.8676 64.0739 46.9946C63.4089 46.2666 62.6059 45.6786 61.7129 45.2616V45.0396C61.8969 45.0396 62.4579 45.1066 63.3769 45.1556C64.2969 45.2036 65.4389 45.1556 66.7839 45.1556H69.8999C70.5299 45.2076 71.1499 44.9856 71.6029 44.5456C71.9549 44.1646 72.1459 43.6616 72.1349 43.1426C72.1399 42.6126 71.9509 42.1006 71.6029 41.7006C71.1589 41.2446 70.5349 41.0106 69.8999 41.0616H48.6099C47.9799 41.0116 47.3609 41.2346 46.9059 41.6716C46.5539 42.0536 46.3599 42.5556 46.3649 43.0746C46.3339 43.6636 46.5609 44.2356 46.9859 44.6426C47.4119 45.0496 47.9939 45.2516 48.5809 45.1946H51.1739C56.0639 45.1946 59.0039 46.8066 59.9899 50.0326H51.5029L56.3419 54.1266H60.2999C60.1639 55.0406 59.8339 55.9146 59.3319 56.6906L63.4839 60.2136C63.9119 59.7246 64.2969 59.2006 64.6349 58.6456C65.4499 57.2666 65.9429 55.7226 66.0769 54.1256H69.8899C70.5199 54.1786 71.1399 53.9556 71.5939 53.5166C71.9439 53.1296 72.1339 52.6256 72.1259 52.1036C72.1299 51.5736 71.9409 51.0616 71.5939 50.6616C71.1539 50.2206 70.5409 49.9936 69.9189 50.0416L69.8999 50.0516V50.0526Z" fill="#1B2A49"/>
</svg>
