<svg width="120" height="120" viewBox="0 0 120 120" fill="none" xmlns="http://www.w3.org/2000/svg">
<path d="M59.9998 119.287C92.7415 119.287 119.284 92.7444 119.284 60.0028C119.284 27.2611 92.7415 0.71875 59.9998 0.71875C27.2582 0.71875 0.71582 27.2611 0.71582 60.0028C0.71582 92.7444 27.2582 119.287 59.9998 119.287Z" fill="#63C7F2"/>
<path d="M96.1911 84.9609H44.4211C42.8968 84.9609 41.6611 86.1966 41.6611 87.7209V92.4589C41.6611 93.9832 42.8968 95.2189 44.4211 95.2189H96.1911C97.7154 95.2189 98.9511 93.9832 98.9511 92.4589V87.7209C98.9511 86.1966 97.7154 84.9609 96.1911 84.9609Z" fill="white"/>
<path d="M96.2797 95.7026H44.3327C43.4967 95.7026 42.6937 95.3706 42.1027 94.7786C41.5107 94.1866 41.1777 93.3846 41.1777 92.5486V87.6316C41.1837 85.8916 42.5927 84.4816 44.3327 84.4766H96.2817C98.0217 84.4826 99.4317 85.8916 99.4357 87.6316V92.5476C99.4357 94.2906 98.0237 95.7026 96.2817 95.7026H96.2797ZM44.3327 85.4446C43.1247 85.4446 42.1457 86.4246 42.1457 87.6316V92.5476C42.1457 93.7556 43.1257 94.7346 44.3327 94.7346H96.2817C97.4897 94.7346 98.4687 93.7556 98.4687 92.5476V87.6326C98.4687 86.4246 97.4887 85.4456 96.2817 85.4456H44.3317L44.3327 85.4446Z" fill="#3B3C40"/>
<path d="M90.404 74.6719H38.634C37.1097 74.6719 35.874 75.9076 35.874 77.4319V82.1699C35.874 83.6942 37.1097 84.9299 38.634 84.9299H90.404C91.9283 84.9299 93.164 83.6942 93.164 82.1699V77.4319C93.164 75.9076 91.9283 74.6719 90.404 74.6719Z" fill="white"/>
<path d="M90.4937 85.4035H38.5446C36.8066 85.4035 35.3946 83.9975 35.3896 82.2585V77.3425C35.3896 75.6005 36.8026 74.1875 38.5446 74.1875H90.4937C92.2357 74.1875 93.6477 75.6005 93.6477 77.3425V82.2585C93.6427 83.9975 92.2317 85.4035 90.4937 85.4035ZM38.5446 75.1555C37.9646 75.1555 37.4086 75.3855 36.9986 75.7955C36.5886 76.2055 36.3587 76.7625 36.3587 77.3425V82.2585C36.3627 83.4625 37.3406 84.4355 38.5446 84.4355H90.4937C91.6977 84.4355 92.6746 83.4625 92.6806 82.2585V77.3425C92.6806 76.7625 92.4506 76.2065 92.0406 75.7955C91.6296 75.3855 91.0737 75.1555 90.4937 75.1555H38.5446Z" fill="#3B3C40"/>
<path d="M95.1648 64.25H43.3948C41.8705 64.25 40.6348 65.4857 40.6348 67.01V71.748C40.6348 73.2723 41.8705 74.508 43.3948 74.508H95.1648C96.6891 74.508 97.9248 73.2723 97.9248 71.748V67.01C97.9248 65.4857 96.6891 64.25 95.1648 64.25Z" fill="white"/>
<path d="M95.2544 74.9896H43.3054C41.5654 74.9846 40.1554 73.5756 40.1514 71.8346V66.9196C40.1514 65.1776 41.5634 63.7656 43.3054 63.7656H95.2544C96.9944 63.7706 98.4044 65.1796 98.4094 66.9196V71.8356C98.4034 73.5756 96.9944 74.9856 95.2544 74.9906V74.9896ZM43.3054 64.7316C42.7254 64.7316 42.1694 64.9616 41.7594 65.3716C41.3494 65.7826 41.1194 66.3386 41.1194 66.9186V71.8346C41.1194 72.4146 41.3494 72.9716 41.7594 73.3816C42.1694 73.7916 42.7254 74.0216 43.3054 74.0216H95.2544C96.4604 74.0166 97.4364 73.0416 97.4414 71.8346V66.9196C97.4414 65.7116 96.4614 64.7326 95.2544 64.7326H43.3054V64.7316Z" fill="#3B3C40"/>
<path d="M86.4167 53.9531H34.6467C33.1224 53.9531 31.8867 55.1888 31.8867 56.7131V61.4511C31.8867 62.9754 33.1224 64.2111 34.6467 64.2111H86.4167C87.941 64.2111 89.1767 62.9754 89.1767 61.4511V56.7131C89.1767 55.1888 87.941 53.9531 86.4167 53.9531Z" fill="white"/>
<path d="M86.5053 64.6948H34.5573C32.8153 64.6948 31.4023 63.2818 31.4023 61.5398V56.6238C31.4083 54.8838 32.8173 53.4737 34.5573 53.4688H86.5053C88.2453 53.4737 89.6553 54.8828 89.6603 56.6238V61.5398C89.6553 63.2798 88.2463 64.6898 86.5053 64.6948ZM34.5573 54.4358C33.3493 54.4358 32.3703 55.4158 32.3703 56.6238V61.5398C32.3703 62.7478 33.3503 63.7268 34.5573 63.7268H86.5053C87.0853 63.7268 87.6423 63.4968 88.0523 63.0868C88.4623 62.6768 88.6923 62.1198 88.6923 61.5398V56.6238C88.6873 55.4178 87.7123 54.4418 86.5053 54.4358H34.5573Z" fill="#3B3C40"/>
<path d="M51.0469 94.0308C68.1817 89.2177 78.1703 71.4254 73.3572 54.2906C68.5441 37.1559 50.7518 27.1672 33.617 31.9804C16.4823 36.7935 6.49361 54.5858 11.3068 71.7205C16.1199 88.8553 33.9122 98.8439 51.0469 94.0308Z" fill="#1B2A49"/>
<path d="M55.8748 86.4273C68.8212 78.9527 73.257 62.3981 65.7824 49.4517C58.3078 36.5053 41.7532 32.0695 28.8068 39.5441C15.8604 47.0187 11.4246 63.5733 18.8992 76.5197C26.3739 89.4661 42.9284 93.9019 55.8748 86.4273Z" fill="white"/>
<path d="M33.2227 51.1787C32.7557 51.2297 32.2907 51.0757 31.9467 50.7557C31.6027 50.4357 31.4147 49.9837 31.4317 49.5147C31.4277 49.0987 31.5837 48.6967 31.8677 48.3917C32.2287 48.0437 32.7227 47.8677 33.2227 47.9077H50.2547C50.7197 47.8577 51.1827 48.0108 51.5267 48.3278C51.8697 48.6448 52.0587 49.0957 52.0447 49.5627C52.0497 49.9807 51.8977 50.3847 51.6187 50.6947C51.2537 51.0437 50.7577 51.2197 50.2547 51.1787H45.0477C44.2647 51.1787 43.8777 51.1207 43.7227 51.0917V51.2757C44.4367 51.6037 45.0777 52.0707 45.6097 52.6497C46.2497 53.3477 46.7227 54.1817 46.9937 55.0887H50.2537C50.7197 55.0387 51.1837 55.1907 51.5267 55.5087C51.8697 55.8257 52.0587 56.2757 52.0447 56.7437C52.0497 57.1607 51.8977 57.5647 51.6187 57.8757C51.2537 58.2237 50.7577 58.3997 50.2547 58.3597H47.2157C47.1047 59.6237 46.7107 60.8477 46.0647 61.9397C45.4877 62.8977 44.7317 63.7357 43.8387 64.4077C42.9577 65.0537 41.9767 65.5497 40.9347 65.8787C39.9257 66.2067 38.8847 66.4238 37.8287 66.5278L48.2317 76.4568C48.6927 76.8848 48.9587 77.4828 48.9677 78.1108C48.9817 78.6548 48.7837 79.1818 48.4157 79.5818C48.0227 79.9968 47.4657 80.2158 46.8957 80.1818C46.5677 80.1788 46.2407 80.1237 45.9287 80.0177C45.5587 79.8727 45.2277 79.6437 44.9607 79.3497L32.6707 67.4277C32.3637 67.1577 32.1137 66.8277 31.9347 66.4597C31.7857 66.1587 31.7067 65.8277 31.7027 65.4917C31.6867 64.9537 31.8847 64.4318 32.2547 64.0398C32.6327 63.6598 33.1507 63.4527 33.6867 63.4697H34.2867C35.2347 63.4677 36.1797 63.3837 37.1127 63.2177C37.9997 63.0627 38.8557 62.7647 39.6477 62.3377C40.3907 61.9397 41.0477 61.3997 41.5837 60.7497C42.1177 60.0377 42.4517 59.1957 42.5517 58.3107H33.2217C32.7177 58.3547 32.2217 58.1697 31.8677 57.8077C31.5857 57.4907 31.4317 57.0807 31.4317 56.6567C31.4277 56.2367 31.5837 55.8327 31.8677 55.5237C32.2287 55.1757 32.7227 54.9997 33.2227 55.0397H42.3387C41.5347 52.4657 39.1937 51.1697 35.2937 51.1697L33.2227 51.1797V51.1787Z" fill="#1B2A49"/>
</svg>
